<svg id="Layer_1" data-name="Layer 1" xmlns="http://www.w3.org/2000/svg" viewBox="0 0 90.82 103.16"><defs><style>.cls-1{fill:#ff9408;}.cls-2{fill:#b2002f;}.cls-3,.cls-4{fill:#646464;}.cls-4{fill-rule:evenodd;}</style></defs><title>SE_Color_Small_RGB</title><path class="cls-1" d="M42.93,58.4A31.14,31.14,0,0,1,31.41,69.56l-.63.31-1.51-3,.62-.31c3.86-1.94,7.94-6.21,10.14-9.87a20,20,0,0,0,1-2,22.55,22.55,0,0,1-2.27,2.12,31,31,0,0,1-14.65,6.54l-.69.08L23.08,60l.69-.08c4.29-.5,9.58-3.12,12.9-5.81a20.08,20.08,0,0,0,1.66-1.52,23.48,23.48,0,0,1-2.85,1.22,31,31,0,0,1-16,1.13l-.67-.16.79-3.29.67.16c4.2,1,10.07.34,14.11-1a17.17,17.17,0,0,0,2.08-.86,21.64,21.64,0,0,1-3.1.17,31.13,31.13,0,0,1-15.42-4.4l-.58-.39,1.87-2.82.58.38c3.6,2.38,9.34,3.77,13.61,3.84a18.73,18.73,0,0,0,2.25-.09,23.81,23.81,0,0,1-3-.91,31.19,31.19,0,0,1-13-9.41l-.41-.56,2.72-2,.42.56C25,37.6,29.92,40.87,33.91,42.4a19.71,19.71,0,0,0,2.14.68,24.66,24.66,0,0,1-2.48-1.86,31.29,31.29,0,0,1-9-13.29l-.19-.67,3.24-1,.2.67c1.24,4.13,4.74,8.89,8,11.69A19.72,19.72,0,0,0,37.58,40a23.65,23.65,0,0,1-1.7-2.6A31.16,31.16,0,0,1,32,21.87l.05-.69,3.38.21,0,.69c-.25,4.31,1.42,10,3.49,13.71a18,18,0,0,0,1.21,1.9,22.35,22.35,0,0,1-.71-3,31.15,31.15,0,0,1,1.66-16l.28-.64,3.1,1.35-.27.64C42.4,24,42,29.92,42.7,34.14a18.38,18.38,0,0,0,.49,2.2,23.93,23.93,0,0,1,.37-3.09,31.25,31.25,0,0,1,7-14.42l.48-.51,2.46,2.33-.48.51c-3,3.14-5.33,8.55-6.15,12.74a20.92,20.92,0,0,0-.29,2.23A23.92,23.92,0,0,1,48,33.36,31.13,31.13,0,0,1,59.52,22.21l.62-.31,1.51,3-.62.31c-3.86,1.93-7.93,6.21-10.13,9.87a18,18,0,0,0-1,2A22.34,22.34,0,0,1,52.12,35a31.21,31.21,0,0,1,14.65-6.55l.69-.08.38,3.37-.69.08c-4.29.5-9.58,3.12-12.9,5.81a19.79,19.79,0,0,0-1.66,1.52,22.13,22.13,0,0,1,2.86-1.22,31.15,31.15,0,0,1,16-1.14l.68.16-.8,3.3-.67-.16c-4.2-1-10.07-.35-14.11,1a22.19,22.19,0,0,0-2.08.86,25.09,25.09,0,0,1,3.1-.17A31.08,31.08,0,0,1,73,46.22l.58.38L71.7,49.43,71.12,49c-3.6-2.37-9.34-3.76-13.61-3.84a21.05,21.05,0,0,0-2.25.1,23.78,23.78,0,0,1,3,.9,31.29,31.29,0,0,1,13,9.41l.41.57-2.72,2-.42-.56C65.92,54.17,61,50.89,57,49.36a18.26,18.26,0,0,0-2.14-.67,23.24,23.24,0,0,1,2.48,1.86,31.23,31.23,0,0,1,9,13.29l.19.67-3.24,1-.2-.67c-1.24-4.14-4.74-8.89-8-11.69a18.38,18.38,0,0,0-1.78-1.38A24.75,24.75,0,0,1,55,54.34a31.28,31.28,0,0,1,3.9,15.56l0,.69-3.38-.21,0-.69c.26-4.31-1.41-10-3.48-13.71a18,18,0,0,0-1.21-1.9,22.35,22.35,0,0,1,.71,3,31.15,31.15,0,0,1-1.66,16l-.28.64-3.1-1.36.27-.63c1.72-4,2.09-9.86,1.42-14.08a20.34,20.34,0,0,0-.48-2.19,23.42,23.42,0,0,1-.37,3.07,31.1,31.1,0,0,1-7,14.43l-.48.51-2.45-2.34.48-.5c3-3.14,5.32-8.55,6.14-12.74a21.13,21.13,0,0,0,.3-2.24,24,24,0,0,1-1.41,2.77Z"/><path class="cls-1" d="M42.75,55.86a28,28,0,0,1-2.31,3.26A34.55,34.55,0,0,1,25.89,69.33l-.65.21-1.07-3.41.65-.2c4.59-1.46,9.82-5.46,12.88-9.11a23.16,23.16,0,0,0,1.8-2.49,26.09,26.09,0,0,1-3.29,2.27,34.63,34.63,0,0,1-17.16,4.63l-.68,0,.16-3.57.68,0c4.81.2,11.09-1.76,15.21-4.14A22.39,22.39,0,0,0,37,51.78a25.09,25.09,0,0,1-3.87,1,34.56,34.56,0,0,1-17.7-1.52L14.77,51l1.37-3.3.62.25c4.46,1.84,11,2.14,15.72,1.31a21.3,21.3,0,0,0,3-.75,27.25,27.25,0,0,1-4-.37,34.42,34.42,0,0,1-16.11-7.49l-.5-.46,2.41-2.63.5.45c3.56,3.25,9.64,5.78,14.33,6.61a22.36,22.36,0,0,0,3,.31,27.24,27.24,0,0,1-3.61-1.71A34.39,34.39,0,0,1,19,30.68l-.32-.6,3.17-1.65.32.6c2.23,4.27,7.08,8.73,11.2,11.11a21.88,21.88,0,0,0,2.76,1.33,25,25,0,0,1-2.8-2.84,34.43,34.43,0,0,1-7.53-16.09l-.09-.68,3.54-.46.09.67C30,26.85,33,32.69,36,36.34a21.28,21.28,0,0,0,2.15,2.2,24.61,24.61,0,0,1-1.67-3.63,34.5,34.5,0,0,1-1.57-17.7l.14-.66,3.49.77-.14.66c-1,4.71-.19,11.24,1.44,15.71a20.79,20.79,0,0,0,1.26,2.81,26,26,0,0,1-.33-4,34.52,34.52,0,0,1,4.58-17.17l.36-.57,3,1.92-.37.57c-2.58,4.07-4,10.5-4,15.25a22.67,22.67,0,0,0,.22,3.08,26,26,0,0,1,1.06-3.86A34.57,34.57,0,0,1,55.83,17.15l.54-.41,2.18,2.83L58,20c-3.82,2.94-7.36,8.49-9,13a21.57,21.57,0,0,0-.84,2.95,26,26,0,0,1,2.31-3.25A34.52,34.52,0,0,1,65,22.43l.65-.2,1.07,3.41-.64.2c-4.59,1.46-9.82,5.46-12.88,9.1a22.78,22.78,0,0,0-1.8,2.49,27.08,27.08,0,0,1,3.28-2.27,34.55,34.55,0,0,1,17.16-4.62l.68,0-.16,3.57-.67,0c-4.82-.2-11.1,1.77-15.22,4.15A21.78,21.78,0,0,0,54,40a27.82,27.82,0,0,1,3.86-1A34.58,34.58,0,0,1,75.53,40.5l.62.26-1.36,3.3-.63-.26c-4.46-1.83-11-2.13-15.72-1.31a22.06,22.06,0,0,0-3,.76,25.82,25.82,0,0,1,4,.37A34.57,34.57,0,0,1,75.55,51.1l.51.47L73.64,54.2l-.5-.46c-3.56-3.25-9.64-5.78-14.32-6.6a22.69,22.69,0,0,0-3.06-.32,27.85,27.85,0,0,1,3.61,1.71A34.55,34.55,0,0,1,72,61.08l.32.61L69.1,63.34l-.32-.61c-2.23-4.26-7.08-8.72-11.2-11.1a20.77,20.77,0,0,0-2.77-1.34,25.07,25.07,0,0,1,2.81,2.84,34.53,34.53,0,0,1,7.54,16.1l.08.67-3.54.47-.09-.67c-.64-4.78-3.67-10.63-6.73-14.27a22.34,22.34,0,0,0-2.14-2.21,28,28,0,0,1,1.67,3.63A34.54,34.54,0,0,1,56,74.56l-.14.66-3.49-.77.14-.67c1-4.7.19-11.23-1.44-15.7a22.11,22.11,0,0,0-1.26-2.81,26,26,0,0,1,.33,4,34.57,34.57,0,0,1-4.58,17.17l-.36.57-3-1.92.37-.57c2.58-4.07,4-10.5,4-15.25a22.27,22.27,0,0,0-.22-3.06,27.41,27.41,0,0,1-1,3.84A34.37,34.37,0,0,1,35.09,74.61l-.54.42-2.17-2.84.54-.41c3.81-2.94,7.36-8.49,9-13a23.71,23.71,0,0,0,.84-3Z"/><path class="cls-2" d="M42.93,58.4a29.65,29.65,0,0,1-2.22,3.21,28.25,28.25,0,0,0,1.2-2.79,23.71,23.71,0,0,0,.84-3,28,28,0,0,1-2.31,3.26,35.3,35.3,0,0,1-10.75,8.56l-.42-.84.62-.31c3.86-1.94,7.94-6.21,10.14-9.87a20,20,0,0,0,1-2,22.55,22.55,0,0,1-2.27,2.12A30.69,30.69,0,0,1,35.62,59a30.2,30.2,0,0,0,2.08-2.22,23.16,23.16,0,0,0,1.8-2.49,26.09,26.09,0,0,1-3.29,2.27,35.24,35.24,0,0,1-13,4.37L23.08,60l.69-.08c4.29-.5,9.58-3.12,12.9-5.81a20.08,20.08,0,0,0,1.66-1.52,23.48,23.48,0,0,1-2.85,1.22,31.4,31.4,0,0,1-3.77,1,27.37,27.37,0,0,0,2.71-1.37A22.39,22.39,0,0,0,37,51.78a25.09,25.09,0,0,1-3.87,1,35.31,35.31,0,0,1-13.73-.35l.22-.91.67.16c4.2,1,10.07.34,14.11-1a17.17,17.17,0,0,0,2.08-.86,21.64,21.64,0,0,1-3.1.17,29.87,29.87,0,0,1-3.89-.32,27.17,27.17,0,0,0,3-.36,21.3,21.3,0,0,0,3-.75,27.25,27.25,0,0,1-4-.37,35.48,35.48,0,0,1-12.78-5l.52-.78.58.38c3.6,2.38,9.34,3.77,13.61,3.84a18.73,18.73,0,0,0,2.25-.09,23.81,23.81,0,0,1-3-.91,30.66,30.66,0,0,1-3.55-1.63,28.1,28.1,0,0,0,3,.7,22.36,22.36,0,0,0,3,.31,27.24,27.24,0,0,1-3.61-1.71,35.63,35.63,0,0,1-10.3-9.09l.76-.56.42.56C25,37.6,29.92,40.87,33.91,42.4a19.71,19.71,0,0,0,2.14.68,24.66,24.66,0,0,1-2.48-1.86,31.55,31.55,0,0,1-2.78-2.76,28.58,28.58,0,0,0,2.55,1.68,21.88,21.88,0,0,0,2.76,1.33,25,25,0,0,1-2.8-2.84,35.36,35.36,0,0,1-6.57-12.06l.9-.27.2.67c1.24,4.13,4.74,8.89,8,11.69A19.72,19.72,0,0,0,37.58,40a23.65,23.65,0,0,1-1.7-2.6,31.07,31.07,0,0,1-1.67-3.53c.6.88,1.21,1.7,1.82,2.44a21.28,21.28,0,0,0,2.15,2.2,24.61,24.61,0,0,1-1.67-3.63,35.38,35.38,0,0,1-2-13.58l.94.06,0,.69c-.25,4.31,1.42,10,3.49,13.71a18,18,0,0,0,1.21,1.9,22.35,22.35,0,0,1-.71-3A32,32,0,0,1,39,30.78a29.44,29.44,0,0,0,.88,2.91,20.79,20.79,0,0,0,1.26,2.81,26,26,0,0,1-.33-4,35.39,35.39,0,0,1,2.73-13.46l.86.37-.27.64C42.4,24,42,29.92,42.7,34.14a18.38,18.38,0,0,0,.49,2.2,23.93,23.93,0,0,1,.37-3.09,30.93,30.93,0,0,1,1-3.77,27,27,0,0,0-.17,3,22.67,22.67,0,0,0,.22,3.08,26,26,0,0,1,1.06-3.86A35.23,35.23,0,0,1,52.83,20l.68.64-.48.51c-3,3.14-5.33,8.55-6.15,12.74a20.92,20.92,0,0,0-.29,2.23A23.92,23.92,0,0,1,48,33.36a31.18,31.18,0,0,1,2.23-3.21A29.45,29.45,0,0,0,49,33a21.57,21.57,0,0,0-.84,2.95,26,26,0,0,1,2.31-3.25,35.62,35.62,0,0,1,10.74-8.57l.42.85-.62.31c-3.86,1.93-7.93,6.21-10.13,9.87a18,18,0,0,0-1,2A22.34,22.34,0,0,1,52.12,35a31.37,31.37,0,0,1,3.19-2.27,30.06,30.06,0,0,0-2.08,2.22,22.78,22.78,0,0,0-1.8,2.49,27.08,27.08,0,0,1,3.28-2.27,35.66,35.66,0,0,1,13-4.37l.1.94-.69.08c-4.29.5-9.58,3.12-12.9,5.81a19.79,19.79,0,0,0-1.66,1.52,22.13,22.13,0,0,1,2.86-1.22,29.2,29.2,0,0,1,3.77-1,27.57,27.57,0,0,0-2.72,1.37A21.78,21.78,0,0,0,54,40a27.82,27.82,0,0,1,3.86-1,35.49,35.49,0,0,1,13.73.35l-.22.92-.67-.16c-4.2-1-10.07-.35-14.11,1a22.19,22.19,0,0,0-2.08.86,25.09,25.09,0,0,1,3.1-.17,31.68,31.68,0,0,1,3.89.33,29.85,29.85,0,0,0-3,.35,22.06,22.06,0,0,0-3,.76,25.82,25.82,0,0,1,4,.37,35.31,35.31,0,0,1,12.78,5l-.52.79L71.12,49c-3.6-2.37-9.34-3.76-13.61-3.84a21.05,21.05,0,0,0-2.25.1,23.78,23.78,0,0,1,3,.9,30.49,30.49,0,0,1,3.54,1.63,28.23,28.23,0,0,0-3-.69,22.69,22.69,0,0,0-3.06-.32,27.85,27.85,0,0,1,3.61,1.71,35.49,35.49,0,0,1,10.3,9.1l-.76.56-.42-.56C65.92,54.17,61,50.89,57,49.36a18.26,18.26,0,0,0-2.14-.67,23.24,23.24,0,0,1,2.48,1.86,30,30,0,0,1,2.77,2.74c-.86-.62-1.71-1.18-2.54-1.66a20.77,20.77,0,0,0-2.77-1.34,25.07,25.07,0,0,1,2.81,2.84A35.39,35.39,0,0,1,64.19,65.2l-.9.27-.2-.67c-1.24-4.14-4.74-8.89-8-11.69a18.38,18.38,0,0,0-1.78-1.38A24.75,24.75,0,0,1,55,54.34a29.22,29.22,0,0,1,1.66,3.52,27,27,0,0,0-1.82-2.43,22.34,22.34,0,0,0-2.14-2.21,28,28,0,0,1,1.67,3.63,35.45,35.45,0,0,1,2,13.59l-.94-.06,0-.69c.26-4.31-1.41-10-3.48-13.71a18,18,0,0,0-1.21-1.9,22.35,22.35,0,0,1,.71,3A32,32,0,0,1,51.93,61a29.44,29.44,0,0,0-.88-2.91,22.11,22.11,0,0,0-1.26-2.81,26,26,0,0,1,.33,4,35.39,35.39,0,0,1-2.73,13.46l-.86-.38.27-.63c1.72-4,2.09-9.86,1.42-14.08a20.34,20.34,0,0,0-.48-2.19,23.42,23.42,0,0,1-.37,3.07,32.84,32.84,0,0,1-1,3.8,27.36,27.36,0,0,0,.17-3.05,22.27,22.27,0,0,0-.22-3.06,27.41,27.41,0,0,1-1,3.84A35.34,35.34,0,0,1,38.1,71.76l-.68-.65.48-.5c3-3.14,5.32-8.55,6.14-12.74a21.13,21.13,0,0,0,.3-2.24,24,24,0,0,1-1.41,2.77Z"/><path class="cls-3" d="M23.94,78.76v2.3h1.8l-.52,1.31H23.94v3.75c0,.5.16.93,1.65,1h.25V88.4h-.26c-1.73,0-2.95-.65-2.95-2.27V78.76Z"/><path class="cls-3" d="M36.25,83.29V88.4H34.94V83.29c0-1.7,1.33-2.27,3.19-2.27H39l-.52,1.3h-.36c-1.71,0-1.88.46-1.88,1Z"/><path class="cls-4" d="M33.77,84.71A3.76,3.76,0,1,1,30,81a3.77,3.77,0,0,1,3.76,3.76Zm-6.24,0A2.48,2.48,0,1,0,30,82.23a2.48,2.48,0,0,0-2.48,2.48Z"/><path class="cls-4" d="M38.81,84.71A3.69,3.69,0,0,1,42.49,81h2.89v7.37H42.5a3.69,3.69,0,0,1-3.69-3.68Zm1.3,0a2.39,2.39,0,0,0,2.39,2.38h1.58V82.32H42.49a2.38,2.38,0,0,0-2.38,2.38Z"/><path class="cls-3" d="M54.11,88.4V81h2.81c1.85,0,3.18.57,3.18,2.27V88.4H58.8V83.29c0-.51-.18-1-1.88-1H55.41V88.4Z"/><path class="cls-3" d="M67.12,86.18c0,1.45-1.25,2.21-2.65,2.21h-3v-1.3h3c1,0,1.35-.47,1.35-.91s-.4-.78-.93-.94-1.25-.27-1.67-.37c-1-.26-1.84-.69-1.84-1.92A2,2,0,0,1,63.56,81h3.16l-.52,1.3H63.56c-.51,0-.87.27-.87.63s.25.5.67.63,1,.21,1.53.34c1.11.27,2.23.74,2.23,2.26Z"/><path class="cls-3" d="M21.24,86.18c0,1.45-1.25,2.21-2.65,2.21h-3v-1.3h3c1,0,1.34-.47,1.34-.91s-.4-.78-.92-.94-1.22-.26-1.63-.36c-1-.25-1.89-.7-1.89-1.93A2.05,2.05,0,0,1,17.67,81h3.16l-.52,1.3H17.67c-.5,0-.87.27-.87.63s.26.5.68.63,1,.21,1.52.34c1.12.27,2.24.74,2.24,2.26Z"/><path class="cls-4" d="M75.43,84.71A3.76,3.76,0,1,1,71.67,81a3.77,3.77,0,0,1,3.76,3.76Zm-6.24,0a2.48,2.48,0,1,0,2.48-2.48,2.48,2.48,0,0,0-2.48,2.48Z"/><path class="cls-3" d="M52.68,87.1v1.3H50.09c-1.86,0-3.19-.57-3.19-2.27V83.3c0-1.71,1.33-2.28,3.19-2.28h2.24l-.53,1.31H50.09c-1.71,0-1.89.45-1.89,1V84h2.95l-.53,1.31H48.2v.85c0,.52.18,1,1.89,1Z"/></svg>